<?xml version="1.0" encoding="UTF-8"?>
<svg version="1.1" xmlns="http://www.w3.org/2000/svg" width="500" height="500">
<path d="M0 0 C0.90105469 0.61439941 0.90105469 0.61439941 1.8203125 1.24121094 C3.78370907 2.58762382 5.73725952 3.94711124 7.6875 5.3125 C8.31293701 5.74554443 8.93837402 6.17858887 9.58276367 6.62475586 C11.09285467 7.69873478 12.55197809 8.84369637 14 10 C14 10.66 14 11.32 14 12 C14.54011719 12.22429687 15.08023437 12.44859375 15.63671875 12.6796875 C18.74743825 14.41757707 21.2229908 16.71000031 23.8125 19.125 C24.3480249 19.62217529 24.8835498 20.11935059 25.43530273 20.6315918 C29.59024527 24.53224001 33.41514578 28.5648919 37 33 C37.83015625 34.00417969 38.6603125 35.00835937 39.515625 36.04296875 C46.46634868 44.57060245 52.44901009 53.50830309 58 63 C58.35690918 63.60392578 58.71381836 64.20785156 59.08154297 64.83007812 C68.92192947 81.6729003 74.87998381 100.01055171 79 119 C79.35191406 120.58554687 79.35191406 120.58554687 79.7109375 122.203125 C89.05646325 168.52442655 77.84802666 220.23340844 51.93383789 259.36694336 C46.47185238 267.36495489 40.41488975 274.75461113 34 282 C33.21625 282.90621094 32.4325 283.81242187 31.625 284.74609375 C26.82301464 290.2233583 21.82622151 295.59030169 16 300 C15.34 300 14.68 300 14 300 C14 300.66 14 301.32 14 302 C12.64575195 303.20166016 12.64575195 303.20166016 10.73828125 304.5390625 C10.03832031 305.0330957 9.33835937 305.52712891 8.6171875 306.03613281 C7.85664063 306.56045898 7.09609375 307.08478516 6.3125 307.625 C5.53519531 308.16479492 4.75789063 308.70458984 3.95703125 309.26074219 C-7.85953794 317.40892744 -19.88217384 324.18402819 -33 330 C-33.89332031 330.40089844 -34.78664063 330.80179687 -35.70703125 331.21484375 C-78.29329271 349.2795441 -131.40678579 349.07948632 -174.1953125 331.9609375 C-195.40910912 323.20804381 -216.31537192 312.07201755 -233 296 C-233 295.34 -233 294.68 -233 294 C-233.58265625 293.7421875 -234.1653125 293.484375 -234.765625 293.21875 C-237.1802903 291.90165983 -238.81740177 290.44911616 -240.75 288.5 C-241.36359375 287.8915625 -241.9771875 287.283125 -242.609375 286.65625 C-244 285 -244 285 -244 283 C-244.66 283 -245.32 283 -246 283 C-249.28911184 279.58551843 -252.12179916 275.7627761 -255 272 C-255.70189453 271.08371826 -255.70189453 271.08371826 -256.41796875 270.14892578 C-265.00664227 258.7942619 -271.80029374 246.8000738 -278 234 C-278.32226562 233.33871094 -278.64453125 232.67742187 -278.9765625 231.99609375 C-285.12136129 219.18058996 -288.39651423 205.48215807 -291.25 191.625 C-291.41322754 190.8417334 -291.57645508 190.0584668 -291.74462891 189.25146484 C-295.74306289 168.8675421 -295.48123012 146.4246856 -292 126 C-291.81261945 124.67873541 -291.6278048 123.35710486 -291.4453125 122.03515625 C-287.51315482 95.15054173 -276.25831118 68.73304861 -260 47 C-259.55849609 46.40735352 -259.11699219 45.81470703 -258.66210938 45.20410156 C-255.82955713 41.42533909 -252.93643331 37.69887564 -250 34 C-249.28585938 33.05382812 -248.57171875 32.10765625 -247.8359375 31.1328125 C-246.92714844 30.07707031 -246.92714844 30.07707031 -246 29 C-245.34 29 -244.68 29 -244 29 C-243.61328125 28.12601563 -243.61328125 28.12601563 -243.21875 27.234375 C-241.90165983 24.8197097 -240.44911616 23.18259823 -238.5 21.25 C-237.58734375 20.32960938 -237.58734375 20.32960938 -236.65625 19.390625 C-235 18 -235 18 -233 18 C-233 17.34 -233 16.68 -233 16 C-220.05672136 3.53196053 -204.04393722 -6.14322512 -188 -14 C-186.86820312 -14.56460938 -185.73640625 -15.12921875 -184.5703125 -15.7109375 C-126.3827204 -43.73772392 -52.83404109 -36.06368535 0 0 Z M-112.92626953 -26.96191406 C-146.88101005 -26.17987774 -178.40951336 -14.96806053 -207 3 C-207.83982422 3.52674316 -208.67964844 4.05348633 -209.54492188 4.59619141 C-210.37056641 5.12776855 -211.19621094 5.6593457 -212.046875 6.20703125 C-212.80323242 6.69276611 -213.55958984 7.17850098 -214.33886719 7.67895508 C-215.16112793 8.33287231 -215.16112793 8.33287231 -216 9 C-216 9.66 -216 10.32 -216 11 C-217.051875 11.3403125 -217.051875 11.3403125 -218.125 11.6875 C-221.74128535 13.33841288 -224.08769976 15.2908835 -227 18 C-227 18.66 -227 19.32 -227 20 C-227.54140625 20.2165625 -228.0828125 20.433125 -228.640625 20.65625 C-231.81645344 22.46499997 -234.20728081 24.91723799 -236.75 27.5 C-237.25660156 27.99886719 -237.76320312 28.49773437 -238.28515625 29.01171875 C-241.12805599 31.53061637 -241.12805599 31.53061637 -242 35 C-242.66 35 -243.32 35 -244 35 C-245.81628776 36.94375954 -245.81628776 36.94375954 -247.625 39.375 C-248.25664062 40.18710938 -248.88828125 40.99921875 -249.5390625 41.8359375 C-251.18650808 43.84109879 -251.18650808 43.84109879 -251 46 C-251.66 46 -252.32 46 -253 46 C-279.26120161 79.25159341 -289.86761048 122.39601175 -289 164 C-288.98324219 165.14339844 -288.96648437 166.28679687 -288.94921875 167.46484375 C-287.63530599 200.83822791 -274.99120258 232.30445178 -257 260 C-256.62311035 260.60618164 -256.2462207 261.21236328 -255.85791016 261.83691406 C-254.95797467 263.2593525 -253.98581916 264.63567761 -253 266 C-252.34 266 -251.68 266 -251 266 C-250.6596875 266.7734375 -250.6596875 266.7734375 -250.3125 267.5625 C-248.51782382 270.89547005 -246.50034985 274.14703671 -244 277 C-243.34 277 -242.68 277 -242 277 C-242 277.66 -242 278.32 -242 279 C-241.34 279 -240.68 279 -240 279 C-240 279.66 -240 280.32 -240 281 C-239.34 281 -238.68 281 -238 281 C-238 281.66 -238 282.32 -238 283 C-235.66666667 285.66666667 -235.66666667 285.66666667 -233 288 C-232.34 288 -231.68 288 -231 288 C-231 288.66 -231 289.32 -231 290 C-230.34 290 -229.68 290 -229 290 C-229 290.66 -229 291.32 -229 292 C-228.34 292 -227.68 292 -227 292 C-227 292.66 -227 293.32 -227 294 C-225.05624046 295.81628776 -225.05624046 295.81628776 -222.625 297.625 C-221.81289062 298.25664062 -221.00078125 298.88828125 -220.1640625 299.5390625 C-218.15890121 301.18650808 -218.15890121 301.18650808 -216 301 C-216 301.66 -216 302.32 -216 303 C-214.4556108 304.29125198 -214.4556108 304.29125198 -212.40625 305.5390625 C-211.24428101 306.2801123 -211.24428101 306.2801123 -210.05883789 307.03613281 C-209.21442139 307.56045898 -208.37000488 308.08478516 -207.5 308.625 C-206.63431396 309.16479492 -205.76862793 309.70458984 -204.87670898 310.26074219 C-178.0598582 326.75963561 -148.10069792 337.66541159 -116.4375 338.6875 C-115.30344727 338.72512451 -114.16939453 338.76274902 -113.00097656 338.80151367 C-89.97077202 339.44702279 -67.76882514 336.81198389 -46 329 C-45.29456055 328.75411133 -44.58912109 328.50822266 -43.86230469 328.25488281 C-28.82983583 322.96997867 -15.3286536 315.47017582 -1.875 307 C-1.27655273 306.62633301 -0.67810547 306.25266602 -0.06152344 305.86767578 C1.33016832 304.96778174 2.67160836 303.99095453 4 303 C4 302.34 4 301.68 4 301 C5.051875 300.6596875 5.051875 300.6596875 6.125 300.3125 C9.74128535 298.66158712 12.08769976 296.7091165 15 294 C15 293.34 15 292.68 15 292 C15.56203125 291.7628125 16.1240625 291.525625 16.703125 291.28125 C19.51894042 289.71052303 21.47955416 287.78528536 23.75 285.5 C24.54921875 284.7059375 25.3484375 283.911875 26.171875 283.09375 C28.21923609 281.21216538 28.21923609 281.21216538 28 279 C28.66 279 29.32 279 30 279 C30 278.34 30 277.68 30 277 C30.66 277 31.32 277 32 277 C33.81628776 275.05624046 33.81628776 275.05624046 35.625 272.625 C36.25664062 271.81289063 36.88828125 271.00078125 37.5390625 270.1640625 C39.18650808 268.15890121 39.18650808 268.15890121 39 266 C39.66 266 40.32 266 41 266 C42.29125198 264.4556108 42.29125198 264.4556108 43.5390625 262.40625 C44.03325684 261.63112061 44.52745117 260.85599121 45.03662109 260.05737305 C45.56078613 259.21343994 46.08495117 258.36950684 46.625 257.5 C47.43251709 256.20799683 47.43251709 256.20799683 48.25634766 254.88989258 C53.02393197 247.15449772 57.19819948 239.2470161 61 231 C61.54269531 229.84242188 62.08539063 228.68484375 62.64453125 227.4921875 C73.42574647 203.52786607 78.04879751 176.21993769 77 150 C76.98195313 148.80632812 76.96390625 147.61265625 76.9453125 146.3828125 C76.46836751 128.30548822 72.59301042 109.82292604 66 93 C65.56880859 91.89132568 65.56880859 91.89132568 65.12890625 90.76025391 C60.8901848 79.96778315 56.10786492 69.875333 50 60 C49.60570801 59.35530762 49.21141602 58.71061523 48.80517578 58.04638672 C47.58970382 56.06531595 46.36093517 54.09335969 45.125 52.125 C44.74351807 51.51100342 44.36203613 50.89700684 43.96899414 50.2644043 C43.03412632 48.80631309 42.02353662 47.39727613 41 46 C40.34 46 39.68 46 39 46 C38.34 44.35 37.68 42.7 37 41 C36.34 41 35.68 41 35 41 C33.5 38 33.5 38 32 35 C31.34 35 30.68 35 30 35 C30 34.34 30 33.68 30 33 C29.34 33 28.68 33 28 33 C28 32.34 28 31.68 28 31 C27.34 31 26.68 31 26 31 C25.773125 30.443125 25.54625 29.88625 25.3125 29.3125 C23.62449964 26.33840412 21.53323483 24.27991135 19 22 C18.34 22 17.68 22 17 22 C17 21.34 17 20.68 17 20 C16.34 20 15.68 20 15 20 C15 19.34 15 18.68 15 18 C12.36315253 15.60179695 12.36315253 15.60179695 9 15 C9 14.34 9 13.68 9 13 C7.35 12.34 5.7 11.68 4 11 C4 10.34 4 9.68 4 9 C2.4556108 7.70874802 2.4556108 7.70874802 0.40625 6.4609375 C-0.36887939 5.96674316 -1.14400879 5.47254883 -1.94262695 4.96337891 C-2.78656006 4.43921387 -3.63049316 3.91504883 -4.5 3.375 C-5.36133545 2.83665527 -6.2226709 2.29831055 -7.11010742 1.74365234 C-14.84652518 -3.02456241 -22.75518849 -7.19167188 -31 -11 C-32.12277344 -11.53109375 -33.24554688 -12.0621875 -34.40234375 -12.609375 C-59.45279355 -23.95076884 -85.63656084 -27.50148245 -112.92626953 -26.96191406 Z " fill="#E0DFD8" transform="translate(356,94)"/>
<path d="M0 0 C0.65952667 0.00027191 1.31905334 0.00054382 1.99856567 0.00082397 C11.92646407 0.01961571 21.46388912 0.42443783 31.25 2.1875 C33.02310547 2.46207031 33.02310547 2.46207031 34.83203125 2.7421875 C78.70322439 10.31101954 120.64669592 38.00642907 146.25 74.1875 C174.64280652 115.38311371 185.67475405 163.50214468 176.97998047 213.05102539 C167.99930246 260.0419891 139.85567582 301.03831508 100.75927734 328.03564453 C89.10785089 335.93107863 77.18212458 342.17949905 63.90625 346.86328125 C61.49508541 347.7365556 59.11141425 348.69041792 56.765625 349.7265625 C53.07014661 351.26223908 49.38089573 352.32525716 45.5 353.25 C44.44848755 353.50487183 44.44848755 353.50487183 43.37573242 353.76489258 C-2.77207722 364.78471231 -51.59408003 357.41010128 -92.37890625 333.31640625 C-98.36693925 329.53485586 -104.10306011 325.45881507 -109.75 321.1875 C-111.13445312 320.14335938 -111.13445312 320.14335938 -112.546875 319.078125 C-136.21323652 300.45311859 -154.07199765 275.85673674 -165.75 248.1875 C-166.24282471 247.02359741 -166.24282471 247.02359741 -166.74560547 245.83618164 C-169.19176672 239.90438586 -171.14219923 233.9248218 -172.875 227.75 C-173.12636719 226.88568359 -173.37773437 226.02136719 -173.63671875 225.13085938 C-179.48013607 204.55652353 -180.45582497 183.40897594 -178.75 162.1875 C-178.69521484 161.33381836 -178.64042969 160.48013672 -178.58398438 159.60058594 C-178.04208779 152.19913706 -176.58252283 145.15074279 -174.875 137.9375 C-174.61847656 136.80570313 -174.36195313 135.67390625 -174.09765625 134.5078125 C-172.75840168 128.76045871 -171.24937912 123.52863893 -168.75 118.1875 C-168.09991135 116.35567125 -167.45416353 114.52229692 -166.8125 112.6875 C-164.25175426 105.95572363 -161.01807588 99.63122085 -157.6875 93.25 C-157.16873291 92.25484375 -156.64996582 91.2596875 -156.11547852 90.234375 C-150.84403153 80.26004484 -150.84403153 80.26004484 -147.75 76.1875 C-147.09 76.1875 -146.43 76.1875 -145.75 76.1875 C-145.51796875 75.48496094 -145.2859375 74.78242188 -145.046875 74.05859375 C-143.50923225 70.65447501 -141.42349568 68.04637425 -139 65.25 C-138.27744019 64.41009521 -138.27744019 64.41009521 -137.5402832 63.55322266 C-118.38261808 41.60395116 -95.66934575 24.54900542 -68.75 13.1875 C-67.97406494 12.8589502 -67.19812988 12.53040039 -66.39868164 12.19189453 C-60.46769755 9.746068 -54.48845541 7.78926413 -48.3125 6.0625 C-47.39090088 5.80315674 -46.46930176 5.54381348 -45.51977539 5.27661133 C-30.39183079 1.08710806 -15.67626294 -0.01096312 0 0 Z M-98.75 35.1875 C-99.63042969 35.74695313 -100.51085937 36.30640625 -101.41796875 36.8828125 C-102.24941406 37.41648438 -103.08085937 37.95015625 -103.9375 38.5 C-104.67355469 38.97050781 -105.40960938 39.44101563 -106.16796875 39.92578125 C-106.69003906 40.34214844 -107.21210938 40.75851563 -107.75 41.1875 C-107.75 41.8475 -107.75 42.5075 -107.75 43.1875 C-108.41 43.1875 -109.07 43.1875 -109.75 43.1875 C-109.75 43.8475 -109.75 44.5075 -109.75 45.1875 C-110.60078125 45.56455078 -110.60078125 45.56455078 -111.46875 45.94921875 C-118.79550303 49.92624052 -124.73083202 57.07299211 -130.375 63.125 C-130.90802734 63.69259033 -131.44105469 64.26018066 -131.99023438 64.8449707 C-134.83350646 67.57523429 -134.83350646 67.57523429 -135.75 71.1875 C-136.41 71.1875 -137.07 71.1875 -137.75 71.1875 C-140.04311315 73.80133736 -141.92004931 76.75318404 -143.875 79.625 C-144.45958984 80.48158203 -145.04417969 81.33816406 -145.64648438 82.22070312 C-150.57935415 89.61728245 -154.46030082 97.21920009 -157.95947266 105.37451172 C-159.04673444 107.86802808 -160.25183162 110.30205082 -161.4375 112.75 C-170.7397876 133.50846059 -173.98196914 156.01781002 -174 178.5625 C-174.00067474 179.32105286 -174.00134949 180.07960571 -174.00204468 180.86114502 C-173.98551977 192.56726789 -173.37853767 203.74293851 -170.75 215.1875 C-170.57307617 216.0031543 -170.39615234 216.81880859 -170.21386719 217.65917969 C-166.62360647 234.06028435 -161.00951893 248.66091587 -152.7902832 263.31445312 C-152.05222347 264.64334171 -151.33106169 265.98167866 -150.62182617 267.32617188 C-147.61644404 272.94934087 -144.12258738 277.92920698 -140.1875 282.9375 C-139.62353516 283.66582031 -139.05957031 284.39414062 -138.47851562 285.14453125 C-137.3940828 286.54224467 -136.30498164 287.93635313 -135.21044922 289.32617188 C-133.9461159 290.93755222 -132.70698401 292.56864639 -131.47265625 294.203125 C-130.90417969 294.85796875 -130.33570313 295.5128125 -129.75 296.1875 C-129.09 296.1875 -128.43 296.1875 -127.75 296.1875 C-127.50636719 296.75726563 -127.26273438 297.32703125 -127.01171875 297.9140625 C-123.22184832 304.74286928 -115.8104662 310.36386364 -109.75 315.1875 C-109.09 315.1875 -108.43 315.1875 -107.75 315.1875 C-107.75 315.8475 -107.75 316.5075 -107.75 317.1875 C-105.96896847 318.60776671 -105.96896847 318.60776671 -103.6875 320 C-100.66939389 321.93443967 -97.74045478 323.90880701 -94.875 326.0625 C-91.9663791 328.46865501 -91.9663791 328.46865501 -88.75 328.1875 C-88.75 328.8475 -88.75 329.5075 -88.75 330.1875 C-84.57043359 332.16213689 -80.38910577 334.13274611 -76.203125 336.09375 C-73.70444649 337.26467884 -71.21533124 338.44790862 -68.734375 339.65625 C-30.88695667 357.76728454 16.78155334 357.6435299 56.25 345.1875 C59.26381593 344.01507733 62.13475898 342.7456859 65.0234375 341.296875 C67.039843 340.29220981 68.99453104 339.53142368 71.125 338.8125 C89.73587071 332.03799083 106.29034507 318.93419342 120.625 305.5625 C121.27879639 304.95341797 121.93259277 304.34433594 122.60620117 303.71679688 C129.36508402 297.30648751 135.31214239 290.41585637 140.6875 282.8125 C141.13287109 282.19761719 141.57824219 281.58273437 142.03710938 280.94921875 C144.4548914 277.87252485 144.4548914 277.87252485 145.25 274.1875 C145.91 274.1875 146.57 274.1875 147.25 274.1875 C171.29843384 241.87474369 178.40721861 194.75726802 173.56640625 155.6484375 C168.82250912 124.41799875 156.74326676 93.54386532 136.25 69.1875 C135.59 69.1875 134.93 69.1875 134.25 69.1875 C133.92902344 68.39279297 133.92902344 68.39279297 133.6015625 67.58203125 C131.73045478 64.26703404 129.21348641 61.63427396 126.625 58.875 C126.08955566 58.30048096 125.55411133 57.72596191 125.00244141 57.1340332 C119.01628679 50.72683444 119.01628679 50.72683444 112.25 45.1875 C111.59 45.1875 110.93 45.1875 110.25 45.1875 C110.25 44.5275 110.25 43.8675 110.25 43.1875 C108.17920873 41.53389003 106.11242785 40.00591332 103.9375 38.5 C103.298125 38.05229248 102.65875 37.60458496 102 37.14331055 C100.09031631 35.8142031 98.17240957 34.49811744 96.25 33.1875 C95.29738281 32.5378125 94.34476562 31.888125 93.36328125 31.21875 C35.28094003 -6.98189296 -41.99565726 -2.64872849 -98.75 35.1875 Z " fill="#E0DFD8" transform="translate(249.75,70.8125)"/>
<path d="M0 0 C0.68333405 -0.00058411 1.36666809 -0.00116821 2.07070923 -0.00177002 C4.32207618 0.00100956 6.5721075 0.03209249 8.82324219 0.06347656 C10.38693519 0.07093948 11.95063756 0.07663217 13.51434326 0.08062744 C17.62453151 0.09588002 21.7341519 0.13515796 25.84411621 0.17944336 C30.04020506 0.22040455 34.23638592 0.23864023 38.43261719 0.25878906 C46.66204408 0.30165314 54.89100994 0.36989923 63.12011719 0.45410156 C63.12011719 4.66545184 63.05161802 5.21817913 60.41479492 8.16137695 C55.36169377 12.89645131 50.00364184 12.34286301 43.40527344 12.13769531 C42.33112183 12.13064575 41.25697021 12.12359619 40.15026855 12.11633301 C36.16051475 12.07987183 32.17151019 11.98214116 28.18261719 11.89160156 C19.25199219 11.74722656 10.32136719 11.60285156 1.12011719 11.45410156 C1.12011719 31.25410156 1.12011719 51.05410156 1.12011719 71.45410156 C21.25011719 71.45410156 41.38011719 71.45410156 62.12011719 71.45410156 C61.84400609 58.97840476 61.84400609 58.97840476 61.48950195 46.50488281 C61.21885063 32.26531295 61.21885063 32.26531295 65.39746094 27.26660156 C67.89558542 24.97231651 69.85678629 24.19750657 73.12011719 23.45410156 C73.18955814 30.85137404 73.2428981 38.24857651 73.2755537 45.64610863 C73.29122504 49.0809211 73.31248933 52.51551097 73.34643555 55.95019531 C73.38519799 59.896783 73.39981431 63.84327984 73.41308594 67.79003906 C73.42856979 69.02652191 73.44405365 70.26300476 73.46000671 71.53695679 C73.46023331 72.67798859 73.4604599 73.81902039 73.46069336 74.99462891 C73.47068611 76.50686539 73.47068611 76.50686539 73.48088074 78.0496521 C73.36182877 78.84312042 73.24277679 79.63658875 73.12011719 80.45410156 C69.5256742 82.85039689 66.92669527 82.74998257 62.7746582 82.74462891 C61.65710144 82.75470474 61.65710144 82.75470474 60.51696777 82.76498413 C58.05258528 82.78399173 55.58847468 82.78788956 53.12402344 82.79003906 C51.41153348 82.79646465 49.69904464 82.80319283 47.98655701 82.81021118 C44.39620416 82.82219054 40.80594759 82.82589129 37.21557617 82.82470703 C32.61408521 82.8245037 28.01321092 82.85181673 23.41186619 82.88625145 C19.87482363 82.90848366 16.3379304 82.91254572 12.80082512 82.91148758 C11.10433767 82.91384867 9.40784642 82.92270078 7.71142769 82.93815231 C5.33883524 82.95774046 2.96758457 82.95200381 0.5949707 82.93994141 C-0.10594193 82.95118042 -0.80685455 82.96241943 -1.52900696 82.97399902 C-4.69916514 82.93302489 -6.63641695 82.61222949 -9.31471252 80.87271118 C-11.46191079 77.55471159 -11.38776432 75.2122424 -11.39746094 71.27050781 C-11.40447021 70.55458466 -11.41147949 69.8386615 -11.41870117 69.1010437 C-11.43627829 66.73916613 -11.42466057 64.3784909 -11.41113281 62.01660156 C-11.41382784 60.3728004 -11.41771035 58.72900079 -11.42272949 57.08520508 C-11.42862411 53.64193528 -11.4200631 50.19908085 -11.40136719 46.75585938 C-11.37857723 42.34376463 -11.39170057 37.93264314 -11.41565704 33.52058411 C-11.43011624 30.12675655 -11.42550857 26.73315947 -11.41514587 23.33932495 C-11.4124789 21.71263514 -11.41574734 20.08592435 -11.42506409 18.45925903 C-11.43523224 16.18484128 -11.41972758 13.91199602 -11.39746094 11.63769531 C-11.39427856 10.34404053 -11.39109619 9.05038574 -11.38781738 7.7175293 C-10.87988281 4.45410156 -10.87988281 4.45410156 -9.27752686 2.0335083 C-6.03916587 -0.09970625 -3.86636764 -0.02781559 0 0 Z " fill="#7FA69F" transform="translate(217.8798828125,159.5458984375)"/>
<path d="M0 0 C3.68940409 1.58117318 6.38058042 3.77440219 8.625 7.125 C8.5 10 8.5 10 7.625 12.125 C6.965 12.125 6.305 12.125 5.625 12.125 C5.625 12.785 5.625 13.445 5.625 14.125 C4.965 14.125 4.305 14.125 3.625 14.125 C3.625 14.785 3.625 15.445 3.625 16.125 C2.965 16.125 2.305 16.125 1.625 16.125 C1.25375 16.9603125 1.25375 16.9603125 0.875 17.8125 C-0.60424818 20.54910913 -2.30967439 22.80150869 -4.375 25.125 C-5.035 25.125 -5.695 25.125 -6.375 25.125 C-6.375 25.785 -6.375 26.445 -6.375 27.125 C-7.035 27.125 -7.695 27.125 -8.375 27.125 C-8.375 27.785 -8.375 28.445 -8.375 29.125 C-9.035 29.125 -9.695 29.125 -10.375 29.125 C-10.61089844 29.68960938 -10.84679687 30.25421875 -11.08984375 30.8359375 C-12.66734942 33.64571963 -14.61551286 35.52119051 -16.9375 37.75 C-20.06542054 40.63570681 -20.06542054 40.63570681 -22.375 44.125 C-23.035 44.125 -23.695 44.125 -24.375 44.125 C-24.75591797 44.99898437 -24.75591797 44.99898437 -25.14453125 45.890625 C-26.50820333 48.36688033 -28.01725203 49.93020626 -30.0625 51.875 C-33.54256497 55.25998123 -36.77237412 58.7749577 -39.9296875 62.4609375 C-43.05367627 66.0577462 -43.05367627 66.0577462 -46.0625 66.6875 C-50.87790669 65.86978943 -53.45961718 62.93742369 -56.375 59.125 C-56.375 58.465 -56.375 57.805 -56.375 57.125 C-57.035 57.125 -57.695 57.125 -58.375 57.125 C-58.375 56.465 -58.375 55.805 -58.375 55.125 C-59.035 55.125 -59.695 55.125 -60.375 55.125 C-60.375 54.465 -60.375 53.805 -60.375 53.125 C-61.035 53.125 -61.695 53.125 -62.375 53.125 C-62.375 52.465 -62.375 51.805 -62.375 51.125 C-63.035 51.125 -63.695 51.125 -64.375 51.125 C-64.375 50.465 -64.375 49.805 -64.375 49.125 C-65.035 49.125 -65.695 49.125 -66.375 49.125 C-66.375 48.465 -66.375 47.805 -66.375 47.125 C-67.035 47.125 -67.695 47.125 -68.375 47.125 C-68.375 46.465 -68.375 45.805 -68.375 45.125 C-69.035 45.125 -69.695 45.125 -70.375 45.125 C-70.705 43.475 -71.035 41.825 -71.375 40.125 C-68.735 37.815 -66.095 35.505 -63.375 33.125 C-58.71756259 34.54174325 -55.94449302 37.22666796 -52.6875 40.6875 C-49.38409992 44.35555362 -49.38409992 44.35555362 -45.375 47.125 C-45.375 46.465 -45.375 45.805 -45.375 45.125 C-44.715 45.125 -44.055 45.125 -43.375 45.125 C-43.375 44.465 -43.375 43.805 -43.375 43.125 C-42.715 43.125 -42.055 43.125 -41.375 43.125 C-41.15972656 42.58101562 -40.94445312 42.03703125 -40.72265625 41.4765625 C-38.91120359 38.31570887 -36.42003977 35.99736204 -33.8125 33.5 C-30.14785984 30.16097098 -30.14785984 30.16097098 -27.375 26.125 C-26.715 26.125 -26.055 26.125 -25.375 26.125 C-25.375 25.465 -25.375 24.805 -25.375 24.125 C-24.715 24.125 -24.055 24.125 -23.375 24.125 C-23.1171875 23.55265625 -22.859375 22.9803125 -22.59375 22.390625 C-21.26134058 19.91371005 -19.72443882 17.9908834 -17.875 15.875 C-16.96234375 14.81539062 -16.96234375 14.81539062 -16.03125 13.734375 C-14.375 12.125 -14.375 12.125 -12.375 12.125 C-12.375 11.465 -12.375 10.805 -12.375 10.125 C-11.715 10.125 -11.055 10.125 -10.375 10.125 C-10.375 9.465 -10.375 8.805 -10.375 8.125 C-9.715 8.125 -9.055 8.125 -8.375 8.125 C-8.1275 7.5475 -7.88 6.97 -7.625 6.375 C-5.72516648 2.95529966 -4.13755148 0.21776587 0 0 Z " fill="#7BA29C" transform="translate(293.375,155.875)"/>
<path d="M0 0 C1.98 0 3.96 0 6 0 C7.65 3.3 9.3 6.6 11 10 C12.65 6.7 14.3 3.4 16 0 C17.98 0 19.96 0 22 0 C22 6.93 22 13.86 22 21 C20.35 21 18.7 21 17 21 C16.67 18.36 16.34 15.72 16 13 C14.68 15.64 13.36 18.28 12 21 C8 19 8 19 6.75 16.375 C6.5025 15.59125 6.255 14.8075 6 14 C5.67 16.31 5.34 18.62 5 21 C3.35 21 1.7 21 0 21 C0 14.07 0 7.14 0 0 Z " fill="#737370" transform="translate(223,275)"/>
<path d="M0 0 C1.98 0 3.96 0 6 0 C7.65 3.3 9.3 6.6 11 10 C12.65 6.7 14.3 3.4 16 0 C17.98 0 19.96 0 22 0 C22 6.93 22 13.86 22 21 C20.35 21 18.7 21 17 21 C17 17.7 17 14.4 17 11 C15.68 14.3 14.36 17.6 13 21 C11.68 20.67 10.36 20.34 9 20 C7.25 16.9375 7.25 16.9375 6 14 C5.67 16.31 5.34 18.62 5 21 C3.35 21 1.7 21 0 21 C0 14.07 0 7.14 0 0 Z " fill="#777776" transform="translate(301,275)"/>
<path d="M0 0 C1.98 0 3.96 0 6 0 C7.32 3.3 8.64 6.6 10 10 C11.65 6.7 13.3 3.4 15 0 C16.98 0 18.96 0 21 0 C21 6.93 21 13.86 21 21 C19.35 21 17.7 21 16 21 C15.67 18.69 15.34 16.38 15 14 C14.01 16.31 13.02 18.62 12 21 C10.109375 20.75390625 10.109375 20.75390625 8 20 C6.953125 18.15234375 6.953125 18.15234375 6.25 15.9375 C6.00765625 15.20402344 5.7653125 14.47054688 5.515625 13.71484375 C5.26039063 12.86599609 5.26039063 12.86599609 5 12 C5.020625 13.11375 5.04125 14.2275 5.0625 15.375 C5 19 5 19 4 21 C2.68 21 1.36 21 0 21 C-0.1963696 18.62543835 -0.38231294 16.25079981 -0.5625 13.875 C-0.61857422 13.20984375 -0.67464844 12.5446875 -0.73242188 11.859375 C-1.03625857 7.7271959 -0.85227531 4.05304259 0 0 Z " fill="#6B6B68" transform="translate(355,275)"/>
<path d="M0 0 C1.65 0 3.3 0 5 0 C5.66 1.65 6.32 3.3 7 5 C7.66 5 8.32 5 9 5 C10.38938077 6.96147874 11.7260411 8.96166576 13 11 C13.33 7.37 13.66 3.74 14 0 C15.32 0 16.64 0 18 0 C19.17426264 2.34852528 19.11508173 3.73774065 19.09765625 6.3515625 C19.09443359 7.20234375 19.09121094 8.053125 19.08789062 8.9296875 C19.07951172 9.81914062 19.07113281 10.70859375 19.0625 11.625 C19.05798828 12.5221875 19.05347656 13.419375 19.04882812 14.34375 C19.03702591 16.56256648 19.02056155 18.78125018 19 21 C17.35 21.33 15.7 21.66 14 22 C11.36 18.37 8.72 14.74 6 11 C5.67 14.3 5.34 17.6 5 21 C3.68 21.33 2.36 21.66 1 22 C0 21 0 21 -0.11352539 18.95874023 C-0.10828857 18.08419189 -0.10305176 17.20964355 -0.09765625 16.30859375 C-0.09443359 15.36435547 -0.09121094 14.42011719 -0.08789062 13.44726562 C-0.07951172 12.45404297 -0.07113281 11.46082031 -0.0625 10.4375 C-0.05798828 9.44041016 -0.05347656 8.44332031 -0.04882812 7.41601562 C-0.03700007 4.94395151 -0.02051849 2.47200482 0 0 Z " fill="#5E5E5D" transform="translate(264,308)"/>
<path d="M0 0 C11.625 -0.125 11.625 -0.125 15 1 C16.14519012 3.29038024 16.07351912 4.53068537 16 7.0625 C16 8.361875 16 9.66125 16 11 C16.33 11.33 16.66 11.66 17 12 C17.3125 14.875 17.3125 14.875 17 18 C14.61282826 20.51557707 13.24774191 20.97755961 9.765625 21.29296875 C8.60546875 21.25816406 7.4453125 21.22335937 6.25 21.1875 C4.1875 21.125625 2.125 21.06375 0 21 C0 14.07 0 7.14 0 0 Z M4 4 C4 5.32 4 6.64 4 8 C5.98 8 7.96 8 10 8 C10 6.68 10 5.36 10 4 C8.02 4 6.04 4 4 4 Z M4 13 C4.33 14.32 4.66 15.64 5 17 C8.465 16.505 8.465 16.505 12 16 C11.67 15.01 11.34 14.02 11 13 C8.69 13 6.38 13 4 13 Z " fill="#565652" transform="translate(123,275)"/>
<path d="M0 0 C1.91541138 -0.10841951 3.83259773 -0.18578079 5.75 -0.25 C7.35101563 -0.31960938 7.35101563 -0.31960938 8.984375 -0.390625 C12 0 12 0 14.3671875 1.7890625 C16.68654445 4.92962717 16.42239537 7.1984417 16 11 C15.34 11.66 14.68 12.32 14 13 C14.28552357 14.89667109 14.28552357 14.89667109 15 17 C15.34060811 18.66519519 15.67558396 20.33157466 16 22 C14.35 22 12.7 22 11 22 C9.68 19.69 8.36 17.38 7 15 C6.01 15 5.02 15 4 15 C4 16.98 4 18.96 4 21 C2.68 21.33 1.36 21.66 0 22 C-2.44248012 14.09785842 -1.6373898 7.99102203 0 0 Z M4 4 C4.33 5.98 4.66 7.96 5 10 C6.65 10 8.3 10 10 10 C10.6814823 8.10820797 10.6814823 8.10820797 11 6 C9.16116119 3.71271266 9.16116119 3.71271266 6.375 3.875 C5.199375 3.936875 5.199375 3.936875 4 4 Z " fill="#6A6A68" transform="translate(313,308)"/>
<path d="M0 0 C3.2779964 0.31138135 4.68067027 0.67325837 7.01953125 3.06640625 C7.61121094 3.89011719 8.20289063 4.71382813 8.8125 5.5625 C9.41707031 6.38878906 10.02164063 7.21507812 10.64453125 8.06640625 C11.09183594 8.70449219 11.53914062 9.34257812 12 10 C13.58272601 8.41727399 13.34735747 6.61965997 13.5625 4.4375 C13.64628906 3.61121094 13.73007813 2.78492188 13.81640625 1.93359375 C13.87699219 1.29550781 13.93757812 0.65742188 14 0 C15.32 0.33 16.64 0.66 18 1 C18 7.93 18 14.86 18 22 C12.6011977 20.92023954 12.22473526 20.65936435 9.25 16.5 C8.65703125 15.6853125 8.0640625 14.870625 7.453125 14.03125 C6.97359375 13.3609375 6.4940625 12.690625 6 12 C5.67 11.67 5.34 11.34 5 11 C4.67 14.63 4.34 18.26 4 22 C2.68 22 1.36 22 0 22 C-0.19617816 19.45873828 -0.38217248 16.91739541 -0.5625 14.375 C-0.61857422 13.66214844 -0.67464844 12.94929688 -0.73242188 12.21484375 C-1.02495798 7.96331896 -0.89547939 4.20543653 0 0 Z " fill="#585956" transform="translate(238,308)"/>
<path d="M0 0 C2.375 0.25 2.375 0.25 5 1 C6.3125 3.0625 6.3125 3.0625 7 5 C7.66 5 8.32 5 9 5 C10.38938077 6.96147874 11.7260411 8.96166576 13 11 C13.33 7.37 13.66 3.74 14 0 C15.32 0 16.64 0 18 0 C18 6.93 18 13.86 18 21 C12 20 12 20 10.1015625 17.93359375 C9.61429687 17.10988281 9.12703125 16.28617187 8.625 15.4375 C7.87089844 14.19806641 7.87089844 14.19806641 7.1015625 12.93359375 C6.73804688 12.29550781 6.37453125 11.65742188 6 11 C5.34 14.3 4.68 17.6 4 21 C2.68 21 1.36 21 0 21 C-1.1936095 13.83834298 -1.43791484 7.18957421 0 0 Z " fill="#6D6E6C" transform="translate(264,275)"/>
<path d="M0 0 C2.10353495 -0.0810206 4.20795952 -0.13919907 6.3125 -0.1875 C7.48425781 -0.22230469 8.65601563 -0.25710938 9.86328125 -0.29296875 C13 0 13 0 14.8984375 1.26171875 C16.22056542 3.34805536 16.37296883 4.54403521 16.3125 7 C16.30863281 7.680625 16.30476563 8.36125 16.30078125 9.0625 C16 11 16 11 14 14 C14.30840599 16.15274948 14.30840599 16.15274948 15 18 C15.66 18 16.32 18 17 18 C17 18.99 17 19.98 17 21 C14.75 21.3125 14.75 21.3125 12 21 C8 16.89189189 8 16.89189189 8 14 C7.01 14 6.02 14 5 14 C5 16.31 5 18.62 5 21 C3.35 21 1.7 21 0 21 C-1.25818438 13.87028851 -0.71148265 7.18050184 0 0 Z M5 4 C5 5.98 5 7.96 5 10 C7.41645782 10.16687448 7.41645782 10.16687448 10 10 C10.66 9.34 11.32 8.68 12 8 C12 7.01 12 6.02 12 5 C9.69 4.67 7.38 4.34 5 4 Z " fill="#6A6A68" transform="translate(169,275)"/>
<path d="M0 0 C4.95 0 9.9 0 15 0 C15 1.32 15 2.64 15 4 C11.18243176 5.37432457 7.92744671 4.67975039 4 4 C4 5.65 4 7.3 4 9 C6.97 9 9.94 9 13 9 C13.33 10.32 13.66 11.64 14 13 C10.7 13 7.4 13 4 13 C4 14.32 4 15.64 4 17 C7.96 17 11.92 17 16 17 C15.67 18.65 15.34 20.3 15 22 C12.52076199 22.02685095 10.0418116 22.04676547 7.5625 22.0625 C6.85544922 22.07087891 6.14839844 22.07925781 5.41992188 22.08789062 C3.61306441 22.09653588 1.80612397 22.05220011 0 22 C-1.55073147 20.44926853 -1.12969128 18.96937747 -1.1328125 16.81640625 C-1.13410156 15.97142578 -1.13539063 15.12644531 -1.13671875 14.25585938 C-1.13091797 12.92264648 -1.13091797 12.92264648 -1.125 11.5625 C-1.12886719 10.67755859 -1.13273437 9.79261719 -1.13671875 8.88085938 C-1.13478516 7.61145508 -1.13478516 7.61145508 -1.1328125 6.31640625 C-1.13168457 5.53724854 -1.13055664 4.75809082 -1.12939453 3.95532227 C-1 2 -1 2 0 0 Z " fill="#72726F" transform="translate(291,308)"/>
<path d="M0 0 C4.95 0 9.9 0 15 0 C15.33 0.99 15.66 1.98 16 3 C15.67 3.66 15.34 4.32 15 5 C11.37 4.67 7.74 4.34 4 4 C4 5.32 4 6.64 4 8 C5.8871875 7.690625 5.8871875 7.690625 7.8125 7.375 C11.4014758 6.78664331 11.75073878 6.83382585 15 9 C14.67 10.32 14.34 11.64 14 13 C10.7 13 7.4 13 4 13 C4.33 13.99 4.66 14.98 5 16 C8.3 16.33 11.6 16.66 15 17 C15 18.32 15 19.64 15 21 C10.05 21 5.1 21 0 21 C-0.82330902 16.06014588 -0.97408154 12.01530259 -0.5625 7.125 C-0.376875 4.77375 -0.19125 2.4225 0 0 Z " fill="#62625D" transform="translate(192,275)"/>
<path d="M0 0 C2.625 -0.1875 2.625 -0.1875 5 0 C13 15.42857143 13 15.42857143 13 21 C11.35 21 9.7 21 8 21 C7.67 19.68 7.34 18.36 7 17 C4.03 17 1.06 17 -2 17 C-2.33 18.32 -2.66 19.64 -3 21 C-4.65 21 -6.3 21 -8 21 C-7.15368307 17.20583759 -5.85982525 13.59849795 -4.5625 9.9375 C-3.91474609 8.09478516 -3.91474609 8.09478516 -3.25390625 6.21484375 C-2 3 -2 3 0 0 Z M1 9 C1 9.99 1 10.98 1 12 C2.32 11.67 3.64 11.34 5 11 C3.68 10.34 2.36 9.68 1 9 Z " fill="#74756F" transform="translate(151,275)"/>
<path d="M0 0 C2.26171875 -0.01953125 2.26171875 -0.01953125 5 1 C6.7171496 3.58945218 7.73233063 6.41058803 8.8125 9.3125 C9.12380859 10.08529297 9.43511719 10.85808594 9.75585938 11.65429688 C11.23691462 15.43993919 12 17.84324108 12 22 C10.35 21.67 8.7 21.34 7 21 C6.67 20.01 6.34 19.02 6 18 C3.36 18 0.72 18 -2 18 C-2.66 19.32 -3.32 20.64 -4 22 C-5.65 21.67 -7.3 21.34 -9 21 C-8.06867993 18.43510233 -7.13021493 15.87320794 -6.1875 13.3125 C-5.92646484 12.59126953 -5.66542969 11.87003906 -5.39648438 11.12695312 C-3.92470495 7.14769764 -2.34362642 3.568224 0 0 Z M1 8 C0.67 9.65 0.34 11.3 0 13 C1.32 13 2.64 13 4 13 C3.67 11.35 3.34 9.7 3 8 C2.34 8 1.68 8 1 8 Z " fill="#676762" transform="translate(220,308)"/>
<path d="M0 0 C12.03647687 -0.43505338 12.03647687 -0.43505338 16 3 C17.39935013 5.79870027 17.25265405 7.90498792 17 11 C15.45493534 13.03667615 14.27853844 13.86073078 12 15 C9.6670134 15.04022391 7.33293334 15.04320247 5 15 C5 17.31 5 19.62 5 22 C3.35 21.67 1.7 21.34 0 21 C0 14.07 0 7.14 0 0 Z M5 4 C5 6.31 5 8.62 5 11 C6.98 11 8.96 11 11 11 C11.33 9.35 11.66 7.7 12 6 C9.69 5.34 7.38 4.68 5 4 Z " fill="#858482" transform="translate(171,308)"/>
<path d="M0 0 C1.32 0 2.64 0 4 0 C4.33 4.62 4.66 9.24 5 14 C7.475 14.99 7.475 14.99 10 16 C10.66 15.67 11.32 15.34 12 15 C12.47001033 11.72444392 12.47001033 11.72444392 12.625 7.9375 C12.69976562 6.64714844 12.77453125 5.35679687 12.8515625 4.02734375 C12.90054687 3.02832031 12.94953125 2.02929688 13 1 C14.9375 0.4375 14.9375 0.4375 17 0 C18.84825697 1.84825697 18.17362167 4.7741053 18.1875 7.25 C18.20167969 8.38953125 18.21585937 9.5290625 18.23046875 10.703125 C18.00304283 13.95647206 17.47926771 16.11337342 16 19 C12.96581396 21.60073089 11.46162581 22.0080987 7.4375 21.9375 C3.52917355 20.87159279 2.35552001 20.25480748 0 17 C-0.48376031 14.06648046 -0.3777473 11.2127547 -0.25 8.25 C-0.23195313 7.45722656 -0.21390625 6.66445313 -0.1953125 5.84765625 C-0.14833082 3.89791652 -0.07659044 1.94880122 0 0 Z " fill="#5C5B59" transform="translate(330,275)"/>
<path d="M0 0 C1.98 0 3.96 0 6 0 C6 6.93 6 13.86 6 21 C4.35 21 2.7 21 1 21 C0.67 18.36 0.34 15.72 0 13 C-0.99 13.495 -0.99 13.495 -2 14 C-3.25 11.5 -3.25 11.5 -4 8 C-3.00060096 5.12543987 -1.58978894 2.58833406 0 0 Z " fill="#828280" transform="translate(239,275)"/>
<path d="M0 0 C1.32 0 2.64 0 4 0 C4 5.61 4 11.22 4 17 C7.63 17 11.26 17 15 17 C14.67 18.65 14.34 20.3 14 22 C9.38 22 4.76 22 0 22 C0 14.74 0 7.48 0 0 Z " fill="#787774" transform="translate(194,308)"/>
<path d="M0 0 C1.32 0 2.64 0 4 0 C5.5056121 7.02618978 4.64057643 13.89452919 4 21 C2.35 21 0.7 21 -1 21 C-1.02888146 17.68751813 -1.04675799 14.37506833 -1.0625 11.0625 C-1.07087891 10.11697266 -1.07925781 9.17144531 -1.08789062 8.19726562 C-1.09111328 7.29814453 -1.09433594 6.39902344 -1.09765625 5.47265625 C-1.10289307 4.64000244 -1.10812988 3.80734863 -1.11352539 2.94946289 C-1 1 -1 1 0 0 Z " fill="#4B4A48" transform="translate(290,275)"/>
<path d="M0 0 C2 3 2 3 2 6 C3.65 5.67 5.3 5.34 7 5 C6.67 3.35 6.34 1.7 6 0 C7.32 0.33 8.64 0.66 10 1 C10 2.65 10 4.3 10 6 C10.66 6 11.32 6 12 6 C12 4.02 12 2.04 12 0 C12.33 0 12.66 0 13 0 C13.125 3.375 13.125 3.375 13 7 C12.34 7.66 11.68 8.32 11 9 C11.28552357 10.89667109 11.28552357 10.89667109 12 13 C12.34060811 14.66519519 12.67558396 16.33157466 13 18 C11.35 18 9.7 18 8 18 C7.0234375 16.2421875 6.046875 14.484375 5.0703125 12.7265625 C3.99102726 10.8387386 3.99102726 10.8387386 2 9 C2.33 8.67 2.66 8.34 3 8 C2.01 7.34 1.02 6.68 0 6 C-0.1875 2.875 -0.1875 2.875 0 0 Z " fill="#8D8D8A" transform="translate(316,312)"/>
<path d="M0 0 C1.94268841 2.91403262 3.46395304 5.85808576 5 9 C5.66 8.34 6.32 7.68 7 7 C7 7.66 7 8.32 7 9 C7.99 9 8.98 9 10 9 C10.33 8.34 10.66 7.68 11 7 C10.71517632 8.41805831 10.42181856 9.83440379 10.125 11.25 C9.96257812 12.03890625 9.80015625 12.8278125 9.6328125 13.640625 C9.00849925 15.96831144 8.15161458 17.89031952 7 20 C5.1875 19.875 5.1875 19.875 3 19 C0.71094011 15.32115375 0 13.38448044 0 9 C-0.66 9 -1.32 9 -2 9 C-1.67 8.34 -1.34 7.68 -1 7 C-0.67 7 -0.34 7 0 7 C-0.2784375 5.824375 -0.2784375 5.824375 -0.5625 4.625 C-1 2 -1 2 0 0 Z " fill="#7E7E7C" transform="translate(307,276)"/>
<path d="M0 0 C1.98 0 3.96 0 6 0 C6 6.93 6 13.86 6 21 C4.68 21 3.36 21 2 21 C1.95101563 20.14535156 1.90203125 19.29070312 1.8515625 18.41015625 C1.73941406 16.75306641 1.73941406 16.75306641 1.625 15.0625 C1.55539062 13.96035156 1.48578125 12.85820312 1.4140625 11.72265625 C1.27742188 10.82417969 1.14078125 9.92570312 1 9 C0.34 8.67 -0.32 8.34 -1 8 C-0.67 7.34 -0.34 6.68 0 6 C-0.32550502 4.33178677 -0.65846063 2.66500443 -1 1 C-0.67 0.67 -0.34 0.34 0 0 Z " fill="#737370" transform="translate(370,275)"/>
<path d="M0 0 C1.65 0 3.3 0 5 0 C5.66 2.64 6.32 5.28 7 8 C6.01 8 5.02 8 4 8 C4 12.62 4 17.24 4 22 C2.68 21.67 1.36 21.34 0 21 C0 14.07 0 7.14 0 0 Z " fill="#4F4F4F" transform="translate(264,308)"/>
<path d="M0 0 C1.32 0 2.64 0 4 0 C4 6.93 4 13.86 4 21 C2.02 20.67 0.04 20.34 -2 20 C-3.125 15.25 -3.125 15.25 -2 13 C-1.34 13 -0.68 13 0 13 C0 8.71 0 4.42 0 0 Z " fill="#5C5B58" transform="translate(278,275)"/>
<path d="M0 0 C1.98 0 3.96 0 6 0 C6.33 1.98 6.66 3.96 7 6 C6.34 6 5.68 6 5 6 C4.67 10.62 4.34 15.24 4 20 C2.68 20.33 1.36 20.66 0 21 C0 14.07 0 7.14 0 0 Z " fill="#6A6A64" transform="translate(223,275)"/>
<path d="M0 0 C0.66 0.33 1.32 0.66 2 1 C2.25 8.625 2.25 8.625 0 12 C0.30840599 14.15274948 0.30840599 14.15274948 1 16 C1.66 16 2.32 16 3 16 C3 16.99 3 17.98 3 19 C0.75 19.3125 0.75 19.3125 -2 19 C-4.3125 16.75 -4.3125 16.75 -6 14 C-6 12.68 -6 11.36 -6 10 C-7.32 9.67 -8.64 9.34 -10 9 C-10 6.36 -10 3.72 -10 1 C-8.35 1 -6.7 1 -5 1 C-5 1.66 -5 2.32 -5 3 C-6.32 2.67 -7.64 2.34 -9 2 C-9 3.98 -9 5.96 -9 8 C-6.03 7.34 -3.06 6.68 0 6 C0 4.02 0 2.04 0 0 Z " fill="#888684" transform="translate(183,277)"/>
<path d="M0 0 C1.32 0 2.64 0 4 0 C4.33 6.6 4.66 13.2 5 20 C3.35 20.33 1.7 20.66 0 21 C-1 20 -1 20 -1.02172852 18.05053711 C-0.97459717 17.2178833 -0.92746582 16.38522949 -0.87890625 15.52734375 C-0.83056641 14.62822266 -0.78222656 13.72910156 -0.73242188 12.80273438 C-0.67634766 11.85720703 -0.62027344 10.91167969 -0.5625 9.9375 C-0.51029297 8.98810547 -0.45808594 8.03871094 -0.40429688 7.06054688 C-0.27418642 4.70673048 -0.13920888 2.35329301 0 0 Z " fill="#72736F" transform="translate(252,275)"/>
<path d="M0 0 C0.99 0.495 0.99 0.495 2 1 C2 3.31 2 5.62 2 8 C2.99 6.68 3.98 5.36 5 4 C5 6.31 5 8.62 5 11 C6.32 11.66 7.64 12.32 9 13 C7.68 13.33 6.36 13.66 5 14 C5 16.64 5 19.28 5 22 C3.35 21.67 1.7 21.34 0 21 C0 14.07 0 7.14 0 0 Z " fill="#787976" transform="translate(171,308)"/>
<path d="M0 0 C1.65 0.33 3.3 0.66 5 1 C5.66 3.97 6.32 6.94 7 10 C5.02 9.34 3.04 8.68 1 8 C0.855625 8.61875 0.71125 9.2375 0.5625 9.875 C0 12 0 12 -1 14 C-1.99 13.67 -2.98 13.34 -4 13 C-3.55966813 7.80408388 -3.11696661 4.33664919 0 0 Z " fill="#6A6965" transform="translate(220,308)"/>
<path d="M0 0 C1.93719378 -0.05406122 3.87481921 -0.09282025 5.8125 -0.125 C6.89144531 -0.14820313 7.97039062 -0.17140625 9.08203125 -0.1953125 C12 0 12 0 15 2 C15.40843923 4.71203652 15.13336867 7.2437142 15 10 C14.01 10.33 13.02 10.66 12 11 C12 9.02 12 7.04 12 5 C8.7 4.67 5.4 4.34 2 4 C1.67 4.99 1.34 5.98 1 7 C0.34 7 -0.32 7 -1 7 C-0.67 4.69 -0.34 2.38 0 0 Z " fill="#747472" transform="translate(313,308)"/>
<path d="M0 0 C2.625 -0.1875 2.625 -0.1875 5 0 C7.125 6.625 7.125 6.625 6 10 C4.35 9.67 2.7 9.34 1 9 C0.67 9.99 0.34 10.98 0 12 C-0.99 11.67 -1.98 11.34 -3 11 C-2.25 3.375 -2.25 3.375 0 0 Z " fill="#494947" transform="translate(151,275)"/>
<path d="M0 0 C2.90064888 4.35097332 3.05908437 5.93845209 2.5625 11.125 C2.46066406 12.22070312 2.35882813 13.31640625 2.25390625 14.4453125 C2.17011719 15.28835938 2.08632813 16.13140625 2 17 C0.68 17 -0.64 17 -2 17 C-2.84553115 11.92681313 -3.34889626 7.14621987 -3 2 C-2.01 1.34 -1.02 0.68 0 0 Z " fill="#4D4D4D" transform="translate(266,279)"/>
<path d="M0 0 C3.3 0 6.6 0 10 0 C10 0.66 10 1.32 10 2 C8.02 2 6.04 2 4 2 C4 3.98 4 5.96 4 8 C3.34 8 2.68 8 2 8 C2 10.64 2 13.28 2 16 C3.98 16.33 5.96 16.66 8 17 C8 17.66 8 18.32 8 19 C5.36 19 2.72 19 0 19 C0 12.73 0 6.46 0 0 Z " fill="#585755" transform="translate(123,276)"/>
<path d="M0 0 C4.95 0 9.9 0 15 0 C15 1.32 15 2.64 15 4 C11.18243176 5.37432457 7.92744671 4.67975039 4 4 C4 5.65 4 7.3 4 9 C3.67 9 3.34 9 3 9 C3 7.35 3 5.7 3 4 C1.68 4.33 0.36 4.66 -1 5 C-0.67 3.35 -0.34 1.7 0 0 Z " fill="#7F7E7C" transform="translate(291,308)"/>
<path d="M0 0 C1.61949011 2.57213134 2.04408751 3.67669159 1.625 6.75 C1.41875 7.4925 1.2125 8.235 1 9 C0.34 9 -0.32 9 -1 9 C-1 7.68 -1 6.36 -1 5 C-1.99 5 -2.98 5 -4 5 C-4 4.34 -4 3.68 -4 3 C-5.65 3 -7.3 3 -9 3 C-8.938125 3.78375 -8.87625 4.5675 -8.8125 5.375 C-8.874375 6.24125 -8.93625 7.1075 -9 8 C-9.99 8.66 -10.98 9.32 -12 10 C-12 7.03 -12 4.06 -12 1 C-7.95858806 0.36605303 -4.0934693 -0.12404452 0 0 Z " fill="#4D4B4A" transform="translate(182,275)"/>
<path d="M0 0 C3 3.625 3 3.625 3 7 C6.63 7 10.26 7 14 7 C14 7.99 14 8.98 14 10 C9.05 10 4.1 10 -1 10 C-1.09765625 3.06640625 -1.09765625 3.06640625 -1 1 C-0.67 0.67 -0.34 0.34 0 0 Z " fill="#656762" transform="translate(291,319)"/>
<path d="M0 0 C1.96630396 2.94945594 3.25740853 5.73697474 4.625 9 C5.07101563 10.051875 5.51703125 11.10375 5.9765625 12.1875 C7 15 7 15 7 18 C5.35 18 3.7 18 2 18 C1.67 16.68 1.34 15.36 1 14 C1.66 14 2.32 14 3 14 C3.33 13.01 3.66 12.02 4 11 C0.7 10.67 -2.6 10.34 -6 10 C-5.67 9.34 -5.34 8.68 -5 8 C-4.01 8 -3.02 8 -2 8 C-2 7.01 -2 6.02 -2 5 C-1.34 5.33 -0.68 5.66 0 6 C0 4.02 0 2.04 0 0 Z " fill="#949692" transform="translate(157,278)"/>
<path d="M0 0 C1.32 0 2.64 0 4 0 C4 4.95 4 9.9 4 15 C3.01 15.33 2.02 15.66 1 16 C-0.50156874 12.99686252 -0.09281204 10.20932478 -0.0625 6.875 C-0.05347656 5.59367187 -0.04445313 4.31234375 -0.03515625 2.9921875 C-0.02355469 2.00476563 -0.01195312 1.01734375 0 0 Z " fill="#575754" transform="translate(330,275)"/>
<path d="M0 0 C0.33 0 0.66 0 1 0 C1 4.62 1 9.24 1 14 C-0.65 14 -2.3 14 -4 14 C-4.0270043 12.54176788 -4.04639787 11.08339325 -4.0625 9.625 C-4.07410156 8.81289063 -4.08570313 8.00078125 -4.09765625 7.1640625 C-4 5 -4 5 -3 3 C-2.34 3 -1.68 3 -1 3 C-0.67 2.01 -0.34 1.02 0 0 Z " fill="#7C7C77" transform="translate(322,282)"/>
<path d="M0 0 C1.32 0.66 2.64 1.32 4 2 C3.67 3.32 3.34 4.64 3 6 C-0.3 6 -3.6 6 -7 6 C-7.33 6.66 -7.66 7.32 -8 8 C-9 5 -9 5 -8 2 C-5.36 2 -2.72 2 0 2 C0 1.34 0 0.68 0 0 Z " fill="#4B4B48" transform="translate(203,282)"/>
<path d="M0 0 C1.65 0.33 3.3 0.66 5 1 C5.33 2.65 5.66 4.3 6 6 C5.34 6 4.68 6 4 6 C3.95101563 6.71027344 3.90203125 7.42054688 3.8515625 8.15234375 C3.77679688 9.07144531 3.70203125 9.99054688 3.625 10.9375 C3.55539062 11.85402344 3.48578125 12.77054687 3.4140625 13.71484375 C3.27742188 14.46894531 3.14078125 15.22304688 3 16 C2.34 16.33 1.68 16.66 1 17 C0.77213542 15.01432292 0.54427083 13.02864583 0.31640625 11.04296875 C0.02829265 8.80603607 0.02829265 8.80603607 -1 6 C-0.72428861 3.99124558 -0.39764263 1.98821313 0 0 Z " fill="#565552" transform="translate(355,275)"/>
<path d="M0 0 C0.66 1.32 1.32 2.64 2 4 C2.99 2.68 3.98 1.36 5 0 C5 4.29 5 8.58 5 13 C3.35 13 1.7 13 0 13 C0 8.71 0 4.42 0 0 Z " fill="#636561" transform="translate(289,283)"/>
<path d="M0 0 C1.32 1.32 2.64 2.64 4 4 C4.33 3.34 4.66 2.68 5 2 C4.29445932 5.66881155 2.72264494 8.70450534 1 12 C-0.65 11.67 -2.3 11.34 -4 11 C-2.68 7.37 -1.36 3.74 0 0 Z " fill="#81827E" transform="translate(215,318)"/>
<path d="M0 0 C0.66 0.33 1.32 0.66 2 1 C2 1.66 2 2.32 2 3 C2.66 3 3.32 3 4 3 C4.99 4.98 5.98 6.96 7 9 C6.01 9 5.02 9 4 9 C4 9.66 4 10.32 4 11 C4.66 11.33 5.32 11.66 6 12 C5.01 12 4.02 12 3 12 C2.34 11.01 1.68 10.02 1 9 C0.67 12.3 0.34 15.6 0 19 C-0.33 19 -0.66 19 -1 19 C-1 14.71 -1 10.42 -1 6 C-0.01 6 0.98 6 2 6 C1.34 4.02 0.68 2.04 0 0 Z " fill="#9D9D99" transform="translate(269,310)"/>
<path d="M0 0 C0.66 0.33 1.32 0.66 2 1 C2 1.66 2 2.32 2 3 C3.32 3.33 4.64 3.66 6 4 C3.35261084 5.4606285 2.10551666 6 -1 6 C-1.66 7.32 -2.32 8.64 -3 10 C-4.65 9.67 -6.3 9.34 -8 9 C-8 8.34 -8 7.68 -8 7 C-7.01 7 -6.02 7 -5 7 C-5 6.34 -5 5.68 -5 5 C-4.34 5 -3.68 5 -3 5 C-3 4.34 -3 3.68 -3 3 C-2.34 3 -1.68 3 -1 3 C-0.67 2.01 -0.34 1.02 0 0 Z " fill="#86A9A3" transform="translate(253,196)"/>
<path d="M0 0 C2 3.75 2 3.75 2 6 C2.33 6 2.66 6 3 6 C3 10.29 3 14.58 3 19 C2.67 19 2.34 19 2 19 C1.855625 17.88625 1.71125 16.7725 1.5625 15.625 C1.21627965 12.17857953 1.21627965 12.17857953 0 10 C-1.65 10 -3.3 10 -5 10 C-3.33333333 6.66666667 -1.66666667 3.33333333 0 0 Z " fill="#969694" transform="translate(369,277)"/>
<path d="M0 0 C4.95 0 9.9 0 15 0 C15.33 0.99 15.66 1.98 16 3 C15.67 3.66 15.34 4.32 15 5 C11.37 4.67 7.74 4.34 4 4 C4.99 3.34 5.98 2.68 7 2 C4.69 1.67 2.38 1.34 0 1 C0 0.67 0 0.34 0 0 Z " fill="#787869" transform="translate(192,275)"/>
<path d="M0 0 C1.32 0 2.64 0 4 0 C6.25 2.25 6.25 2.25 8 5 C8 6.32 8 7.64 8 9 C5.6875 9.3125 5.6875 9.3125 3 9 C0.36439287 5.72821183 0 4.27931853 0 0 Z " fill="#6E6E68" transform="translate(321,321)"/>
<path d="M0 0 C1.134375 0.020625 2.26875 0.04125 3.4375 0.0625 C3.7675 1.3825 4.0975 2.7025 4.4375 4.0625 C0.6875 5.1875 0.6875 5.1875 -1.5625 4.0625 C-1.8925 5.7125 -2.2225 7.3625 -2.5625 9.0625 C-3.2225 8.7325 -3.8825 8.4025 -4.5625 8.0625 C-4.60491723 5.72955225 -4.60342937 3.39547433 -4.5625 1.0625 C-3.5625 0.0625 -3.5625 0.0625 0 0 Z " fill="#4E4C4B" transform="translate(176.5625,307.9375)"/>
<path d="M0 0 C2 1 2 1 2.8125 3.25 C3.04981941 6.7306847 1.99176373 8.21153078 0 11 C-1.32 10.34 -2.64 9.68 -4 9 C-4 7.35 -4 5.7 -4 4 C-2.68 3.67 -1.36 3.34 0 3 C0 2.01 0 1.02 0 0 Z " fill="#61605E" transform="translate(235,285)"/>
<path d="M0 0 C1.2065625 0.0309375 1.2065625 0.0309375 2.4375 0.0625 C3.24717438 2.97732778 3.65595993 4.52363217 2.5 7.375 C1.9740625 8.2103125 1.9740625 8.2103125 1.4375 9.0625 C0.1175 8.7325 -1.2025 8.4025 -2.5625 8.0625 C-2.94313221 5.7364143 -3.27519945 3.40194736 -3.5625 1.0625 C-2.5625 0.0625 -2.5625 0.0625 0 0 Z " fill="#5A5A55" transform="translate(312.5625,286.9375)"/>
<path d="M0 0 C1.98 0.495 1.98 0.495 4 1 C3.01 1 2.02 1 1 1 C1.185625 2.258125 1.37125 3.51625 1.5625 4.8125 C2.19117906 10.29597851 1.66318446 15.54148179 1 21 C1.66 21 2.32 21 3 21 C3 18.03 3 15.06 3 12 C3.33 12 3.66 12 4 12 C4 15.3 4 18.6 4 22 C2.68 22 1.36 22 0 22 C-0.19617816 19.45873828 -0.38217248 16.91739541 -0.5625 14.375 C-0.61857422 13.66214844 -0.67464844 12.94929688 -0.73242188 12.21484375 C-1.02495798 7.96331896 -0.89547939 4.20543653 0 0 Z " fill="#92928E" transform="translate(238,308)"/>
<path d="M0 0 C1.32 0 2.64 0 4 0 C4 3.63 4 7.26 4 11 C2.68 10.67 1.36 10.34 0 10 C0 6.7 0 3.4 0 0 Z " fill="#676665" transform="translate(264,319)"/>
<path d="M0 0 C0.99 0.33 1.98 0.66 3 1 C3.73046875 3.06640625 3.73046875 3.06640625 4.1875 5.5625 C4.34605469 6.38878906 4.50460938 7.21507812 4.66796875 8.06640625 C4.77753906 8.70449219 4.88710937 9.34257812 5 10 C3.02 9.01 1.04 8.02 -1 7 C-1 6.34 -1 5.68 -1 5 C-1.66 4.67 -2.32 4.34 -3 4 C-2.01 2.68 -1.02 1.36 0 0 Z " fill="#5B5A58" transform="translate(222,308)"/>
<path d="M0 0 C0.99 0.33 1.98 0.66 3 1 C3 5.62 3 10.24 3 15 C2.34 15 1.68 15 1 15 C-0.44207941 12.11584117 -0.09394887 9.58278472 -0.0625 6.375 C-0.05347656 5.18648438 -0.04445312 3.99796875 -0.03515625 2.7734375 C-0.02355469 1.85820312 -0.01195312 0.94296875 0 0 Z " fill="#535353" transform="translate(252,309)"/>
<path d="M0 0 C1.65 0 3.3 0 5 0 C5.33 1.65 5.66 3.3 6 5 C5.34 5 4.68 5 4 5 C3.87625 5.61875 3.7525 6.2375 3.625 6.875 C3 9 3 9 1 11 C-0.17571451 7.32589215 -0.07366746 3.83070817 0 0 Z " fill="#4C4D4A" transform="translate(224,276)"/>
<path d="M0 0 C1.134375 0.020625 2.26875 0.04125 3.4375 0.0625 C4 2 4 2 4.4375 4.0625 C3.4375 5.0625 3.4375 5.0625 -0.125 5.125 C-1.259375 5.104375 -2.39375 5.08375 -3.5625 5.0625 C-4.125 3.125 -4.125 3.125 -4.5625 1.0625 C-3.5625 0.0625 -3.5625 0.0625 0 0 Z " fill="#838280" transform="translate(231.5625,256.9375)"/>
<path d="M0 0 C0.99 0.66 1.98 1.32 3 2 C3.1875 4.625 3.1875 4.625 3 7 C1.34385343 7.38218767 -0.32457024 7.71395102 -2 8 C-3 7 -3 7 -3.25 4.5625 C-3.1675 3.716875 -3.085 2.87125 -3 2 C-2.01 1.34 -1.02 0.68 0 0 Z " fill="#626A55" transform="translate(254,288)"/>
<path d="M0 0 C2.97 0 5.94 0 9 0 C8.67 0.66 8.34 1.32 8 2 C6.35 2 4.7 2 3 2 C3 2.66 3 3.32 3 4 C5.31 4 7.62 4 10 4 C10 4.33 10 4.66 10 5 C7.69 5 5.38 5 3 5 C3.33 6.32 3.66 7.64 4 9 C3.01 9 2.02 9 1 9 C0.67 6.03 0.34 3.06 0 0 Z " fill="#818180" transform="translate(124,283)"/>
<path d="M0 0 C2.64 0 5.28 0 8 0 C7.67 1.65 7.34 3.3 7 5 C4.69 5 2.38 5 0 5 C0 3.35 0 1.7 0 0 Z " fill="#767674" transform="translate(300,257)"/>
<path d="M0 0 C2.64 0 5.28 0 8 0 C8 1.65 8 3.3 8 5 C5.69 5 3.38 5 1 5 C0.67 3.35 0.34 1.7 0 0 Z " fill="#6E6F67" transform="translate(287,257)"/>
<path d="M0 0 C2.64 0 5.28 0 8 0 C7.67 1.65 7.34 3.3 7 5 C4.69 5 2.38 5 0 5 C0 3.35 0 1.7 0 0 Z " fill="#636360" transform="translate(276,257)"/>
<path d="M0 0 C2.64 0 5.28 0 8 0 C7.67 1.65 7.34 3.3 7 5 C4.69 5 2.38 5 0 5 C0 3.35 0 1.7 0 0 Z " fill="#87867E" transform="translate(252,257)"/>
<path d="M0 0 C2.64 0 5.28 0 8 0 C7.67 1.65 7.34 3.3 7 5 C4.69 5 2.38 5 0 5 C0 3.35 0 1.7 0 0 Z " fill="#706F67" transform="translate(192,257)"/>
<path d="M0 0 C1.32 1.32 2.64 2.64 4 4 C4.66 3.67 5.32 3.34 6 3 C6.25 5.3125 6.25 5.3125 6 8 C4 9.8125 4 9.8125 2 11 C0.68 9.35 -0.64 7.7 -2 6 C-1.67 5.34 -1.34 4.68 -1 4 C-0.64830932 2.67139075 -0.31229724 1.33841672 0 0 Z " fill="#91918F" transform="translate(246,314)"/>
<path d="M0 0 C1.98 0 3.96 0 6 0 C6.36923077 5.53846154 6.36923077 5.53846154 4.5 7.875 C3.7575 8.431875 3.7575 8.431875 3 9 C2.01 8.34 1.02 7.68 0 7 C0.33 6.34 0.66 5.68 1 5 C0.72057545 3.32345271 0.39171753 1.65391846 0 0 Z " fill="#4F4F50" transform="translate(369,276)"/>
<path d="M0 0 C0.33 0.99 0.66 1.98 1 3 C0.67 3.66 0.34 4.32 0 5 C0.99 5.33 1.98 5.66 3 6 C0.11584117 7.44207941 -2.41721528 7.09394887 -5.625 7.0625 C-6.81351563 7.05347656 -8.00203125 7.04445313 -9.2265625 7.03515625 C-10.14179687 7.02355469 -11.05703125 7.01195312 -12 7 C-12 6.67 -12 6.34 -12 6 C-9.36 6 -6.72 6 -4 6 C-4 5.34 -4 4.68 -4 4 C-4.99 3.67 -5.98 3.34 -7 3 C-3.535 2.505 -3.535 2.505 0 2 C0 1.34 0 0.68 0 0 Z " fill="#82827F" transform="translate(135,289)"/>
<path d="M0 0 C2.31 0 4.62 0 7 0 C7.33 0.99 7.66 1.98 8 3 C7.67 3.66 7.34 4.32 7 5 C4.69 5 2.38 5 0 5 C0 3.35 0 1.7 0 0 Z " fill="#7C7C75" transform="translate(240,257)"/>
<path d="M0 0 C2.31 0 4.62 0 7 0 C7.33 0.99 7.66 1.98 8 3 C7.67 3.66 7.34 4.32 7 5 C4.69 5 2.38 5 0 5 C0 3.35 0 1.7 0 0 Z " fill="#848582" transform="translate(216,257)"/>
<path d="M0 0 C0.33 0.66 0.66 1.32 1 2 C2.32 1.34 3.64 0.68 5 0 C5.99 0.99 6.98 1.98 8 3 C7.67 3.99 7.34 4.98 7 6 C8.32 6.66 9.64 7.32 11 8 C4.66666667 7.51282051 4.66666667 7.51282051 1.5625 5.125 C0 3 0 3 0 0 Z " fill="#90908A" transform="translate(330,289)"/>
<path d="M0 0 C0.99 0 1.98 0 3 0 C2.88658363 2.31309705 2.75896193 4.62550185 2.625 6.9375 C2.52058594 8.86916016 2.52058594 8.86916016 2.4140625 10.83984375 C2.27742187 11.88269531 2.14078125 12.92554688 2 14 C1.01 14.495 1.01 14.495 0 15 C0 10.05 0 5.1 0 0 Z " fill="#4E4D49" transform="translate(194,309)"/>
<path d="M0 0 C1.2380014 3.57644848 0.74926071 6.33694766 0 10 C-1.32 10 -2.64 10 -4 10 C-4 7.36 -4 4.72 -4 2 C-3.01 2.33 -2.02 2.66 -1 3 C-0.67 2.01 -0.34 1.02 0 0 Z " fill="#7E7E7C" transform="translate(268,286)"/>
<path d="M0 0 C1.93742341 -0.02703381 3.87495479 -0.04641125 5.8125 -0.0625 C6.89144531 -0.07410156 7.97039062 -0.08570313 9.08203125 -0.09765625 C12 0 12 0 15 1 C14.67 1.66 14.34 2.32 14 3 C13.67 3 13.34 3 13 3 C12.67 4.65 12.34 6.3 12 8 C11.34 7.67 10.68 7.34 10 7 C10 6.34 10 5.68 10 5 C7.03 4.505 7.03 4.505 4 4 C4 3.67 4 3.34 4 3 C5.98 3 7.96 3 10 3 C10 2.34 10 1.68 10 1 C6.7 1 3.4 1 0 1 C0 0.67 0 0.34 0 0 Z " fill="#8D8C8B" transform="translate(123,275)"/>
<path d="M0 0 C0.99 0 1.98 0 3 0 C3.28571429 7.42857143 3.28571429 7.42857143 1 11 C0.34 10.67 -0.32 10.34 -1 10 C-1.02689216 8.52093108 -1.04634621 7.04172517 -1.0625 5.5625 C-1.07410156 4.73878906 -1.08570313 3.91507812 -1.09765625 3.06640625 C-1 1 -1 1 0 0 Z " fill="#525252" transform="translate(320,275)"/>
<path d="M0 0 C2.31 0 4.62 0 7 0 C7 1.65 7 3.3 7 5 C4.69 5 2.38 5 0 5 C0 3.35 0 1.7 0 0 Z " fill="#7F8077" transform="translate(204,257)"/>
<path d="M0 0 C2.31 0 4.62 0 7 0 C7 1.65 7 3.3 7 5 C4.69 5 2.38 5 0 5 C0 3.35 0 1.7 0 0 Z " fill="#7E7D7A" transform="translate(264,257)"/>
<path d="M0 0 C0.99 0 1.98 0 3 0 C3 3.63 3 7.26 3 11 C1.68 10.67 0.36 10.34 -1 10 C-0.67 6.7 -0.34 3.4 0 0 Z " fill="#51514E" transform="translate(241,284)"/>
<path d="M0 0 C0.33 1.32 0.66 2.64 1 4 C-2.75 7 -2.75 7 -5 7 C-5.2475 7.556875 -5.495 8.11375 -5.75 8.6875 C-7.21606015 11.39971127 -9.02989471 13.63587365 -11 16 C-11.66 15.67 -12.32 15.34 -13 15 C-11.88266271 13.49428343 -10.75589965 11.99555708 -9.625 10.5 C-8.99851562 9.6646875 -8.37203125 8.829375 -7.7265625 7.96875 C-7.15679687 7.3190625 -6.58703125 6.669375 -6 6 C-5.34 6 -4.68 6 -4 6 C-3.566875 5.071875 -3.566875 5.071875 -3.125 4.125 C-2 2 -2 2 0 0 Z " fill="#E7E6E0" transform="translate(116,117)"/>
<path d="M0 0 C1.98 0.495 1.98 0.495 4 1 C4 5.29 4 9.58 4 14 C3.67 14 3.34 14 3 14 C2.67 11.03 2.34 8.06 2 5 C1.01 6.32 0.02 7.64 -1 9 C-1.09765625 2.84765625 -1.09765625 2.84765625 -1 1 C-0.67 0.67 -0.34 0.34 0 0 Z " fill="#ADADAD" transform="translate(344,275)"/>
<path d="M0 0 C2.31 0 4.62 0 7 0 C6.67 1.65 6.34 3.3 6 5 C4.35 5 2.7 5 1 5 C0.67 3.35 0.34 1.7 0 0 Z " fill="#767671" transform="translate(311,257)"/>
<path d="M0 0 C0 3.63 0 7.26 0 11 C-0.99 11 -1.98 11 -3 11 C-3.94296589 7.33291043 -4.11421833 4.64653273 -3 1 C-1 0 -1 0 0 0 Z " fill="#515251" transform="translate(347,278)"/>
<path d="M0 0 C2.475 0.495 2.475 0.495 5 1 C5 3.64 5 6.28 5 9 C4.01 9.33 3.02 9.66 2 10 C2.04125 9.0925 2.0825 8.185 2.125 7.25 C2.00468444 4.1217954 1.6085292 2.61385994 0 0 Z " fill="#53534E" transform="translate(323,309)"/>
<path d="M0 0 C0.66 0 1.32 0 2 0 C2.33 1.32 2.66 2.64 3 4 C3.66 4 4.32 4 5 4 C5 4.99 5 5.98 5 7 C3.35 7 1.7 7 0 7 C-0.66 5.68 -1.32 4.36 -2 3 C-1.34 2.01 -0.68 1.02 0 0 Z " fill="#7A7A72" transform="translate(181,289)"/>
<path d="M0 0 C2.5654594 2.5654594 2.54046087 4.47686668 3 8 C2.34 8 1.68 8 1 8 C0.67 9.65 0.34 11.3 0 13 C-1.95418308 10.06872538 -2.64700993 8.44165321 -3 5 C-2.34 4.34 -1.68 3.68 -1 3 C-0.67 2.01 -0.34 1.02 0 0 Z " fill="#E5E5E0" transform="translate(418,189)"/>
<path d="M0 0 C3.3 0 6.6 0 10 0 C10.33 0.99 10.66 1.98 11 3 C7.7 3 4.4 3 1 3 C0.67 2.01 0.34 1.02 0 0 Z " fill="#4D4D49" transform="translate(197,326)"/>
<path d="M0 0 C1.8871875 0.0309375 1.8871875 0.0309375 3.8125 0.0625 C3.8125 1.0525 3.8125 2.0425 3.8125 3.0625 C-0.8075 3.0625 -5.4275 3.0625 -10.1875 3.0625 C-6.61118771 0.67829181 -4.20439261 -0.06892447 0 0 Z " fill="#4D4E49" transform="translate(301.1875,325.9375)"/>
<path d="M0 0 C1.258125 -0.020625 2.51625 -0.04125 3.8125 -0.0625 C4.52019531 -0.07410156 5.22789062 -0.08570313 5.95703125 -0.09765625 C8 0 8 0 11 1 C10.67 2.32 10.34 3.64 10 5 C6.7 4.01 3.4 3.02 0 2 C0 1.34 0 0.68 0 0 Z " fill="#565755" transform="translate(150,288)"/>
<path d="M0 0 C1.20628008 2.33214148 2.1654738 4.49642139 3 7 C2.01 7.99 1.02 8.98 0 10 C-0.66 9.67 -1.32 9.34 -2 9 C-1.125 1.125 -1.125 1.125 0 0 Z " fill="#5E5D5A" transform="translate(150,277)"/>
<path d="M0 0 C0.99 0.33 1.98 0.66 3 1 C3.125 6.75 3.125 6.75 2 9 C1.34 9 0.68 9 0 9 C-1.36623674 6.26752652 -1.128426 4.01801098 -1 1 C-0.67 0.67 -0.34 0.34 0 0 Z " fill="#706F6D" transform="translate(136,277)"/>
<path d="M0 0 C0.99 0.495 0.99 0.495 2 1 C2 3.31 2 5.62 2 8 C2.99 6.68 3.98 5.36 5 4 C5 6.31 5 8.62 5 11 C3.68 10.67 2.36 10.34 1 10 C0.67 10.66 0.34 11.32 0 12 C0 8.04 0 4.08 0 0 Z " fill="#BCBBBA" transform="translate(171,308)"/>
<path d="M0 0 C1.65 0 3.3 0 5 0 C4.67 1.98 4.34 3.96 4 6 C2.68 6.33 1.36 6.66 0 7 C0 4.69 0 2.38 0 0 Z " fill="#605F5D" transform="translate(264,308)"/>
<path d="M0 0 C0.598125 0.185625 1.19625 0.37125 1.8125 0.5625 C4.16408762 1.22093687 4.16408762 1.22093687 7 0 C6.34 1.98 5.68 3.96 5 6 C3.68 5.67 2.36 5.34 1 5 C0.67 3.35 0.34 1.7 0 0 Z " fill="#7F7F7C" transform="translate(362,290)"/>
<path d="M0 0 C1.98 0 3.96 0 6 0 C6 1.33333333 6 2.66666667 6 4 C3.36 4 0.72 4 -2 4 C-1.34 2.68 -0.68 1.36 0 0 Z " fill="#5C5D5A" transform="translate(220,321)"/>
<path d="M0 0 C0.33 0.99 0.66 1.98 1 3 C3.01508358 3.73323796 3.01508358 3.73323796 5 4 C1.36576791 6.32590854 -1.77088331 6.16265833 -6 6 C-5.01 5.34 -4.02 4.68 -3 4 C-3.33 3.34 -3.66 2.68 -4 2 C-2.68 2 -1.36 2 0 2 C0 1.34 0 0.68 0 0 Z " fill="#868784" transform="translate(182,317)"/>
<path d="M0 0 C0.33 0 0.66 0 1 0 C1.33 2.31 1.66 4.62 2 7 C2.66 7 3.32 7 4 7 C4.33 7.99 4.66 8.98 5 10 C4.67 10.66 4.34 11.32 4 12 C2.68 12 1.36 12 0 12 C0 8.04 0 4.08 0 0 Z " fill="#787971" transform="translate(355,284)"/>
<path d="M0 0 C1.65 0 3.3 0 5 0 C4.5504955 1.31554985 4.09010284 2.62738358 3.625 3.9375 C3.36976563 4.66839844 3.11453125 5.39929688 2.8515625 6.15234375 C2 8 2 8 0 9 C0 6.03 0 3.06 0 0 Z " fill="#545353" transform="translate(170,276)"/>
<path d="M0 0 C2.64 0 5.28 0 8 0 C8.33 1.32 8.66 2.64 9 4 C6.69 4 4.38 4 2 4 C2.33 3.01 2.66 2.02 3 1 C2.01 0.67 1.02 0.34 0 0 Z " fill="#7C7B79" transform="translate(296,317)"/>
<path d="M0 0 C0.33 1.32 0.66 2.64 1 4 C3.97 4.495 3.97 4.495 7 5 C7 5.66 7 6.32 7 7 C4.36 7 1.72 7 -1 7 C-0.67 4.69 -0.34 2.38 0 0 Z " fill="#51504E" transform="translate(124,288)"/>
<path d="M0 0 C0.66 0.33 1.32 0.66 2 1 C2 3.64 2 6.28 2 9 C0.02 9.99 0.02 9.99 -2 11 C-2.66 9.68 -3.32 8.36 -4 7 C-2.68 6.67 -1.36 6.34 0 6 C0 4.02 0 2.04 0 0 Z " fill="#767775" transform="translate(183,277)"/>
<path d="M0 0 C1.98 0 3.96 0 6 0 C6.33 2.97 6.66 5.94 7 9 C6.01 8.67 5.02 8.34 4 8 C3.67 5.69 3.34 3.38 3 1 C2.01 0.67 1.02 0.34 0 0 Z " fill="#5F5F5C" transform="translate(301,275)"/>
<path d="M0 0 C1.65 0 3.3 0 5 0 C5 1.65 5 3.3 5 5 C3.35 5 1.7 5 0 5 C0 3.35 0 1.7 0 0 Z " fill="#858583" transform="translate(182,257)"/>
<path d="M0 0 C0.99 0.33 1.98 0.66 3 1 C3 4.3 3 7.6 3 11 C2.67 11 2.34 11 2 11 C1.67 9.35 1.34 7.7 1 6 C0.01 6.495 0.01 6.495 -1 7 C-0.67 4.69 -0.34 2.38 0 0 Z " fill="#A8A8A6" transform="translate(238,282)"/>
<path d="M0 0 C0.99 0.33 1.98 0.66 3 1 C3 3.31 3 5.62 3 8 C2.01 8 1.02 8 0 8 C0 5.36 0 2.72 0 0 Z " fill="#4D4C4A" transform="translate(172,321)"/>
<path d="M0 0 C2.35953094 2.35953094 2.49141413 3.77895617 3 7 C0.50907189 8.24546405 -0.41080733 7.7767578 -3 7 C-2.67 6.34 -2.34 5.68 -2 5 C-1.835 4.319375 -1.67 3.63875 -1.5 2.9375 C-1 1 -1 1 0 0 Z " fill="#5B5B5A" transform="translate(244,311)"/>
<path d="M0 0 C0.33 2.31 0.66 4.62 1 7 C-0.98 7 -2.96 7 -5 7 C-4.53479806 4.30182875 -3.4249099 0 0 0 Z " fill="#444444" transform="translate(316,312)"/>
<path d="M0 0 C0.33 1.65 0.66 3.3 1 5 C-0.65 5 -2.3 5 -4 5 C-4.33 3.68 -4.66 2.36 -5 1 C-2 0 -2 0 0 0 Z " fill="#7D7E77" transform="translate(163,291)"/>
<path d="M0 0 C0.66 0.66 1.32 1.32 2 2 C1.625 4.625 1.625 4.625 1 7 C0.01 7.33 -0.98 7.66 -2 8 C-2.125 5.125 -2.125 5.125 -2 2 C-1.34 1.34 -0.68 0.68 0 0 Z " fill="#D9DAD2" transform="translate(100,153)"/>
<path d="M0 0 C0.99 0 1.98 0 3 0 C3 1.98 3 3.96 3 6 C1.68 6 0.36 6 -1 6 C-0.67 4.02 -0.34 2.04 0 0 Z " fill="#4C4C48" transform="translate(184,314)"/>
<path d="M0 0 C2.0625 0.4375 2.0625 0.4375 4 1 C3.01 1.66 2.02 2.32 1 3 C1.99 3.33 2.98 3.66 4 4 C3.34 4 2.68 4 2 4 C1.67 5.65 1.34 7.3 1 9 C0.34 8.67 -0.32 8.34 -1 8 C-1.04241723 5.66705225 -1.04092937 3.33297433 -1 1 C-0.67 0.67 -0.34 0.34 0 0 Z " fill="#5B595A" transform="translate(173,308)"/>
<path d="M0 0 C2.15377564 2.62198774 3.40072174 4.64404172 4 8 C3.01 8.495 3.01 8.495 2 9 C2 8.34 2 7.68 2 7 C0.35 7 -1.3 7 -3 7 C-2.34 6.34 -1.68 5.68 -1 5 C-0.35232207 2.42938689 -0.35232207 2.42938689 0 0 Z " fill="#91908D" transform="translate(343,285)"/>
<path d="M0 0 C1.65 1.65 3.3 3.3 5 5 C4.01 5.495 4.01 5.495 3 6 C1.86649466 8.01669827 1.86649466 8.01669827 1 10 C0.34 8.68 -0.32 7.36 -1 6 C-0.34 6 0.32 6 1 6 C0.67 4.02 0.34 2.04 0 0 Z " fill="#8D8D86" transform="translate(273,282)"/>
<path d="M0 0 C0.99 0.33 1.98 0.66 3 1 C2.67 2.32 2.34 3.64 2 5 C-1.3 5 -4.6 5 -8 5 C-8 4.67 -8 4.34 -8 4 C-4.535 3.505 -4.535 3.505 -1 3 C-0.67 2.01 -0.34 1.02 0 0 Z " fill="#AEAFAB" transform="translate(204,283)"/>
<path d="M0 0 C1.32 0 2.64 0 4 0 C2.75023244 3.65316671 2.32901247 4.78065836 -1 7 C-1.04254356 5.00045254 -1.04080783 2.99958364 -1 1 C-0.67 0.67 -0.34 0.34 0 0 Z " fill="#7C7B79" transform="translate(290,275)"/>
<path d="M0 0 C1.65 0 3.3 0 5 0 C5.12375 0.639375 5.2475 1.27875 5.375 1.9375 C5.684375 2.9584375 5.684375 2.9584375 6 4 C6.66 4.33 7.32 4.66 8 5 C5.125 4.75 5.125 4.75 2 4 C0.625 1.9375 0.625 1.9375 0 0 Z " fill="#DCD9D2" transform="translate(316,85)"/>
<path d="M0 0 C1.32 0 2.64 0 4 0 C4.6875 1.8125 4.6875 1.8125 5 4 C3.5625 5.75 3.5625 5.75 2 7 C1.34 4.69 0.68 2.38 0 0 Z " fill="#6D6D6C" transform="translate(273,319)"/>
<path d="M0 0 C0.33 0.66 0.66 1.32 1 2 C1.99 2 2.98 2 4 2 C4.33 1.34 4.66 0.68 5 0 C4.625 2.4375 4.625 2.4375 4 5 C3.01 5.495 3.01 5.495 2 6 C2 5.34 2 4.68 2 4 C0.35 3.67 -1.3 3.34 -3 3 C-2.67 2.34 -2.34 1.68 -2 1 C-1.67 1.33 -1.34 1.66 -1 2 C-0.67 1.34 -0.34 0.68 0 0 Z " fill="#8C8C8B" transform="translate(313,283)"/>
<path d="M0 0 C0.99 0.33 1.98 0.66 3 1 C3.37849614 5.54195365 2.9891703 6.0144396 0 10 C0 6.7 0 3.4 0 0 Z " fill="#4F4F4D" transform="translate(278,276)"/>
<path d="M0 0 C1.5 1.3125 1.5 1.3125 3 3 C3 3.99 3 4.98 3 6 C1.35 5.67 -0.3 5.34 -2 5 C-2 3.68 -2 2.36 -2 1 C-1.34 0.67 -0.68 0.34 0 0 Z " fill="#6E9E98" transform="translate(262,190)"/>
<path d="M0 0 C1.32 0 2.64 0 4 0 C4.66 0.99 5.32 1.98 6 3 C5.67 3.66 5.34 4.32 5 5 C3.68 5 2.36 5 1 5 C0.67 3.35 0.34 1.7 0 0 Z " fill="#848582" transform="translate(223,316)"/>
<path d="M0 0 C0.309375 0.639375 0.61875 1.27875 0.9375 1.9375 C1.8345163 3.93610821 1.8345163 3.93610821 3 5 C3.04063832 6.66617115 3.042721 8.33388095 3 10 C2.34 10 1.68 10 1 10 C-0.60725635 6.78548731 -0.05748185 3.56387464 0 0 Z " fill="#4C4D4D" transform="translate(252,314)"/>
<path d="M0 0 C1.98 0 3.96 0 6 0 C6.33 0.99 6.66 1.98 7 3 C5.68 3.33 4.36 3.66 3 4 C2.01 2.68 1.02 1.36 0 0 Z " fill="#52514F" transform="translate(299,309)"/>
<path d="M0 0 C1.98 0 3.96 0 6 0 C6.33 0.99 6.66 1.98 7 3 C4.69 3 2.38 3 0 3 C0 2.01 0 1.02 0 0 Z " fill="#74736E" transform="translate(276,259)"/>
<path d="M0 0 C1.98 0.66 3.96 1.32 6 2 C4 4 4 4 1.375 4.125 C0.59125 4.08375 -0.1925 4.0425 -1 4 C-0.67 2.68 -0.34 1.36 0 0 Z " fill="#D9D8D0" transform="translate(320,77)"/>
<path d="M0 0 C1.32 0.66 2.64 1.32 4 2 C2.68 3.32 1.36 4.64 0 6 C-1.32 5.34 -2.64 4.68 -4 4 C-3.01 3.34 -2.02 2.68 -1 2 C-0.67 1.34 -0.34 0.68 0 0 Z " fill="#EAE7E2" transform="translate(160,409)"/>
<path d="M0 0 C0.33 0.66 0.66 1.32 1 2 C1.99 2.33 2.98 2.66 4 3 C4 4.32 4 5.64 4 7 C2.68 6.34 1.36 5.68 0 5 C0 3.35 0 1.7 0 0 Z " fill="#5F5F5A" transform="translate(270,281)"/>
<path d="M0 0 C4.455 0.99 4.455 0.99 9 2 C9 2.33 9 2.66 9 3 C6.36 3 3.72 3 1 3 C0.67 3.99 0.34 4.98 0 6 C-1.125 2.25 -1.125 2.25 0 0 Z " fill="#868782" transform="translate(194,281)"/>
<path d="M0 0 C0.99 0 1.98 0 3 0 C2.67 2.31 2.34 4.62 2 7 C1.34 6.67 0.68 6.34 0 6 C0 4.02 0 2.04 0 0 Z " fill="#494845" transform="translate(301,276)"/>
<path d="M0 0 C1.65 0 3.3 0 5 0 C5.33 1.32 5.66 2.64 6 4 C4.68 4.33 3.36 4.66 2 5 C2 4.01 2 3.02 2 2 C1.34 1.34 0.68 0.68 0 0 Z " fill="#646361" transform="translate(151,275)"/>
<path d="M0 0 C0.66 0 1.32 0 2 0 C2.33 1.65 2.66 3.3 3 5 C1.35 4.67 -0.3 4.34 -2 4 C-1.34 2.68 -0.68 1.36 0 0 Z " fill="#DCD8D1" transform="translate(411,338)"/>
<path d="M0 0 C0.33 0.66 0.66 1.32 1 2 C1.66 2 2.32 2 3 2 C3 3.65 3 5.3 3 7 C2.01 7 1.02 7 0 7 C0 4.69 0 2.38 0 0 Z " fill="#50504B" transform="translate(372,289)"/>
<path d="M0 0 C0.33 0 0.66 0 1 0 C1.625 2.8125 1.625 2.8125 2 6 C1.01 7.485 1.01 7.485 0 9 C-2 6 -2 6 -1.6875 3.375 C-1 1 -1 1 0 0 Z " fill="#4F504F" transform="translate(304,280)"/>
<path d="M0 0 C0.99 0 1.98 0 3 0 C3 2.64 3 5.28 3 8 C1.5 6.8125 1.5 6.8125 0 5 C-0.1875 2.3125 -0.1875 2.3125 0 0 Z " fill="#484746" transform="translate(331,276)"/>
<path d="M0 0 C2.31 0.33 4.62 0.66 7 1 C5 3 5 3 2.375 3.125 C1.59125 3.08375 0.8075 3.0425 0 3 C0 2.01 0 1.02 0 0 Z " fill="#43443F" transform="translate(217,258)"/>
</svg>
